<svg width="256" height="256" viewBox="0 0 256 256" xmlns="http://www.w3.org/2000/svg">
  <rect width="256" height="256" fill="#000000" rx="32"/>
  <g transform="translate(28 24)" fill="#FFD700">
    <circle cx="94" cy="36" r="18"/>
    <path d="M81 60c15-6 29-6 42 0l36 58c6 9 2 20-7 24s-19 0-25-9l-17-27-9 24 42 36c6 5 8 14 3 20-5 7-15 8-21 2l-40-35-19 44c-4 9-14 13-23 9s-13-14-9-23l32-73-18-12-19 22c-6 7-16 8-23 3s-8-16-2-22l32-38c8-9 19-14 30-14z"/>
    <rect x="132" y="78" width="98" height="18" rx="9" transform="rotate(10 132 78)"/>
    <text x="100" y="196" font-size="28" text-anchor="middle" font-family="'Segoe UI',sans-serif" font-weight="600">
      Mancave Sports Cards
    </text>
  </g>
</svg>
